<svg xmlns="http://www.w3.org/2000/svg" width="1440" height="900" viewBox="0 0 1440 900" role="img" aria-label="Galaxy Graph public-safe sample architecture map">
  <defs>
    <radialGradient id="bg" cx="50%" cy="45%" r="80%"><stop offset="0%" stop-color="#142441"/><stop offset="55%" stop-color="#08111f"/><stop offset="100%" stop-color="#030712"/></radialGradient>
    <filter id="glow" x="-80%" y="-80%" width="260%" height="260%"><feGaussianBlur stdDeviation="14" result="blur"/><feMerge><feMergeNode in="blur"/><feMergeNode in="SourceGraphic"/></feMerge></filter>
    <style>.title{font:700 54px Arial,sans-serif;fill:#f4f8ff}.sub{font:24px Arial,sans-serif;fill:#9fb2cc}.small{font:18px Arial,sans-serif;fill:#a9b9d1}.label{font:24px Arial,sans-serif;fill:#edf5ff}.edge{fill:none;stroke-linecap:round;stroke-width:4;opacity:.86}.card{fill:#0b1426;stroke:#3a5278;stroke-width:2}.node{stroke:#f5fbff;stroke-width:3}.edge-label{font:18px Arial,sans-serif;fill:#b2c2da}</style>
  </defs>
  <rect width="1440" height="900" fill="url(#bg)"/>
  <g opacity=".55"><circle cx="96" cy="124" r="1.5" fill="#8db9ff"/><circle cx="243" cy="218" r="1" fill="#d9e8ff"/><circle cx="612" cy="122" r="1.3" fill="#8db9ff"/><circle cx="1180" cy="82" r="1.4" fill="#d9e8ff"/><circle cx="1320" cy="356" r="1" fill="#a8d6ff"/><circle cx="141" cy="736" r="1.2" fill="#a8d6ff"/><circle cx="690" cy="780" r="1" fill="#d9e8ff"/><circle cx="1250" cy="780" r="1.5" fill="#8db9ff"/><circle cx="504" cy="612" r="1.2" fill="#d9e8ff"/><circle cx="930" cy="718" r="1" fill="#a8d6ff"/></g>
  <text x="70" y="94" class="title">Galaxy Graph</text><text x="72" y="134" class="sub">Architecture, service intent, tests, contracts, events, and mutation confidence — in one navigable map.</text>
  <path d="M330 390 C460 300 595 300 720 330" class="edge" stroke="#f8d77a"/><text x="510" y="305" class="edge-label">tests</text><path d="M720 330 C780 405 820 500 860 575" class="edge" stroke="#54c1ff"/><text x="772" y="450" class="edge-label">publishes</text><path d="M860 575 C945 595 1015 570 1080 500" class="edge" stroke="#54c1ff"/><text x="945" y="600" class="edge-label">consumes</text><path d="M720 330 C770 362 840 383 910 405" class="edge" stroke="#f8d77a"/><path d="M910 405 C970 420 1030 455 1080 500" class="edge" stroke="#f8d77a"/><text x="928" y="424" class="edge-label">contract</text>
  <g filter="url(#glow)"><circle cx="330" cy="390" r="66" fill="#54c1ff" opacity=".22"/><circle cx="720" cy="330" r="66" fill="#ff7b54" opacity=".24"/><circle cx="1080" cy="500" r="66" fill="#28d97a" opacity=".22"/><circle cx="860" cy="575" r="48" fill="#54c1ff" opacity=".22"/><circle cx="910" cy="405" r="48" fill="#f8d77a" opacity=".25"/></g>
  <circle cx="330" cy="390" r="44" class="node" fill="#54c1ff"/><text x="268" y="465" class="label">identity</text><circle cx="720" cy="330" r="44" class="node" fill="#ff7b54"/><text x="672" y="405" class="label">billing</text><circle cx="1080" cy="500" r="44" class="node" fill="#28d97a"/><text x="998" y="575" class="label">notifications</text><polygon points="860,537 898,575 860,613 822,575" class="node" fill="#54c1ff"/><text x="804" y="650" class="label">topic</text><circle cx="910" cy="405" r="32" class="node" fill="#f8d77a"/><text x="867" y="470" class="label">bond</text>
  <rect x="54" y="640" width="610" height="172" rx="20" class="card"/><text x="84" y="685" class="label">Encore adapter MVP</text><text x="92" y="725" class="small">• 3 services • 3 endpoints • 1 topic</text><text x="92" y="754" class="small">• 1 cross-service contract</text><text x="92" y="783" class="small">• Stryker score: 66.67% from fixture</text><rect x="820" y="92" width="505" height="156" rx="20" class="card"/><text x="850" y="138" class="label">Public-safe sample data</text><text x="850" y="178" class="small">Synthetic fixture, no source-app data.</text><text x="850" y="208" class="small">Generated from the Galaxy Graph sample topology.</text>
</svg>